<?xml version="1.0" encoding="UTF-8"?>
<svg version="1.1" xmlns="http://www.w3.org/2000/svg" width="400" height="400">
<path d="M0 0 C132 0 264 0 400 0 C400 111.54 400 223.08 400 338 C268 338 136 338 0 338 C0 226.46 0 114.92 0 0 Z " fill="#FEFEFE" transform="translate(0,31)"/>
<path d="M0 0 C1.50336914 -0.00580078 1.50336914 -0.00580078 3.03710938 -0.01171875 C4.59848633 0.00568359 4.59848633 0.00568359 6.19140625 0.0234375 C7.22845703 0.01183594 8.26550781 0.00023438 9.33398438 -0.01171875 C18.91513467 0.02520283 18.91513467 0.02520283 22.75390625 3.3984375 C25.4495852 6.46358999 26.24632525 8.74358971 26.78125 12.76953125 C27.01497314 14.49792236 27.01497314 14.49792236 27.25341797 16.26123047 C27.42246722 17.64002913 27.58910135 19.01912509 27.75390625 20.3984375 C27.85084778 21.19904602 27.94778931 21.99965454 28.04766846 22.82452393 C28.95306579 30.35852721 29.80218739 37.89878782 30.65209961 45.43920898 C30.97684613 48.31258705 31.30473672 51.18559422 31.6328125 54.05859375 C31.77971275 55.37731224 31.77971275 55.37731224 31.92958069 56.72267151 C32.02315353 57.54130173 32.11672638 58.35993195 32.21313477 59.20336914 C32.33399193 60.27706505 32.33399193 60.27706505 32.45729065 61.37245178 C32.75833046 63.42865635 33.21574905 65.39240913 33.75390625 67.3984375 C42.38185738 60.63531731 50.9896286 53.85013206 59.52539062 46.97070312 C61.49613903 45.38254693 63.46876366 43.79674002 65.44140625 42.2109375 C66.05943115 41.71150635 66.67745605 41.2120752 67.31420898 40.69750977 C79.5967079 30.83177845 79.5967079 30.83177845 85.94140625 29.9609375 C92.13458747 30.67163043 95.97989433 34.32030925 99.94140625 38.9609375 C100.53953125 39.7653125 101.13765625 40.5696875 101.75390625 41.3984375 C102.64078125 42.1203125 103.52765625 42.8421875 104.44140625 43.5859375 C107.26688453 47.02233001 107.59469685 49.38435196 108.1015625 53.703125 C107.27443089 60.11571842 102.57526802 65.081935 98.44140625 69.7734375 C97.45441884 70.91683898 96.46874048 72.06137175 95.484375 73.20703125 C94.77547119 74.03050049 94.77547119 74.03050049 94.05224609 74.87060547 C91.82263805 77.49431497 89.72864098 80.21557159 87.63671875 82.94921875 C86.12423612 84.91670135 84.59748248 86.86966415 83.05859375 88.81640625 C82.57583984 89.42750244 82.09308594 90.03859863 81.59570312 90.66821289 C80.64754451 91.86745678 79.69839352 93.06591702 78.74804688 94.26342773 C75.62237822 98.22438483 72.66089705 102.27407871 69.75390625 106.3984375 C70.94258301 106.51119019 70.94258301 106.51119019 72.15527344 106.6262207 C79.50859982 107.32570667 86.86045469 108.03832611 94.21128845 108.76347351 C97.76428121 109.11229022 101.31762978 109.45264127 104.87353516 109.77050781 C108.68924783 110.11187656 112.50273983 110.4725253 116.31640625 110.8359375 C117.47946289 110.93366455 118.64251953 111.0313916 119.84082031 111.13208008 C127.02844534 111.84156754 131.45046713 112.6901408 136.37744141 118.22094727 C138.89164494 122.19827634 138.22423571 126.6952198 138.19140625 131.2734375 C138.21138672 132.25441406 138.23136719 133.23539063 138.25195312 134.24609375 C138.24899511 138.62986958 137.99160966 141.82921706 136.2890625 145.90625 C130.44493645 151.65132307 121.43217402 152.08269038 113.62109375 153.00390625 C112.06698288 153.19730339 112.06698288 153.19730339 110.48147583 153.39460754 C108.30540729 153.66352816 106.12878535 153.92800474 103.95166016 154.18823242 C100.63046836 154.58575053 97.31131847 154.99776997 93.9921875 155.41210938 C91.86859391 155.67272649 89.74489909 155.93252036 87.62109375 156.19140625 C86.14272537 156.37415352 86.14272537 156.37415352 84.63449097 156.56059265 C79.6331577 157.15361785 74.79012537 157.53312607 69.75390625 157.3984375 C72.08229626 160.40229901 74.41717543 163.40106027 76.75390625 166.3984375 C77.56472656 167.43871094 78.37554687 168.47898438 79.2109375 169.55078125 C84.77897764 176.67471934 90.4240422 183.72948519 96.16259766 190.71704102 C108.27879601 205.52509107 108.27879601 205.52509107 107.75390625 213.3984375 C105.67638194 218.58867865 102.64143983 221.91228245 98.69140625 225.7109375 C98.14935547 226.24783203 97.60730469 226.78472656 97.04882812 227.33789062 C93.22491835 231.08617302 91.32101716 232.55786916 86.00390625 232.7109375 C85.1634375 232.74832031 84.32296875 232.78570312 83.45703125 232.82421875 C77.54502018 231.89299157 73.14315872 227.15458715 68.75390625 223.3359375 C64.17473615 219.40336318 59.52258479 215.59875632 54.75390625 211.8984375 C49.3246728 207.68491995 44.04356309 203.3270147 38.83984375 198.83789062 C35.97868276 196.35536505 35.97868276 196.35536505 32.75390625 194.3984375 C32.67350098 195.28402344 32.5930957 196.16960937 32.51025391 197.08203125 C29.49113226 230.1933112 29.49113226 230.1933112 27.75390625 242.3984375 C27.54314453 244.08066406 27.54314453 244.08066406 27.328125 245.796875 C26.5116772 251.66110008 25.75537586 255.92620676 21.75390625 260.3984375 C17.07187032 263.30671784 12.16004112 262.72827571 6.81640625 262.7109375 C5.82705078 262.72705078 4.83769531 262.74316406 3.81835938 262.75976562 C-5.49698734 262.76603015 -5.49698734 262.76603015 -9.24609375 259.3984375 C-11.62689605 255.92414671 -12.72774479 253.09925169 -13.33984375 248.9453125 C-13.49582031 247.89150391 -13.65179688 246.83769531 -13.8125 245.75195312 C-14.54853492 240.05928666 -15.1689669 234.35920398 -15.74609375 228.6484375 C-16.6926012 219.51671651 -17.69747605 210.40435848 -18.9140625 201.3046875 C-19.24609375 198.3984375 -19.24609375 198.3984375 -19.24609375 194.3984375 C-24.3120786 198.43144496 -29.36250465 202.48178255 -34.37109375 206.5859375 C-35.28117187 207.33101562 -36.19125 208.07609375 -37.12890625 208.84375 C-38.79267217 210.20640157 -40.45524707 211.57045655 -42.11621094 212.93652344 C-46.80168788 216.7880084 -51.50833326 220.61142283 -56.24609375 224.3984375 C-56.7992627 224.8423584 -57.35243164 225.2862793 -57.92236328 225.74365234 C-67.87462481 233.65329626 -67.87462481 233.65329626 -74.24609375 233.3984375 C-79.36926833 232.02757089 -82.34589875 228.71270936 -85.93359375 225.0234375 C-86.51431641 224.4459375 -87.09503906 223.8684375 -87.69335938 223.2734375 C-92.36735101 218.54000782 -94.40065482 215.47329351 -94.70703125 208.59375 C-93.45285319 202.62046126 -88.00437077 197.5253764 -84.18359375 192.8984375 C-74.63888964 181.24375228 -65.40449394 169.35799697 -56.24609375 157.3984375 C-57.00220947 157.35380371 -57.7583252 157.30916992 -58.53735352 157.26318359 C-68.82384335 156.59652936 -79.04947843 155.52252558 -89.28930664 154.3515625 C-91.23081038 154.13145444 -93.1728868 153.91634441 -95.11547852 153.70605469 C-97.96110153 153.39800735 -100.8047818 153.07565273 -103.6484375 152.75 C-104.50896225 152.65925201 -105.369487 152.56850403 -106.25608826 152.4750061 C-112.59257537 151.72373496 -118.07216911 150.66795817 -122.64453125 145.89453125 C-124.87620961 141.02294069 -124.90640111 136.76057174 -124.87109375 131.4609375 C-124.90332031 130.49736328 -124.93554688 129.53378906 -124.96875 128.54101562 C-124.9751634 123.84961683 -124.68742953 120.21016427 -121.89453125 116.33203125 C-119.11546951 113.68926219 -116.96770691 112.89459052 -113.203125 112.2956543 C-112.22741547 112.1390181 -111.25170593 111.9823819 -110.24642944 111.82099915 C-105.59999614 111.1666042 -100.9511591 110.60432348 -96.28515625 110.109375 C-95.29156097 110.00122467 -94.2979657 109.89307434 -93.27426147 109.78164673 C-91.19558007 109.55629386 -89.11668834 109.33287323 -87.03759766 109.11132812 C-83.8578263 108.77202176 -80.67889693 108.42551869 -77.5 108.078125 C-75.47009778 107.85895134 -73.44015134 107.64018675 -71.41015625 107.421875 C-70.46427643 107.31878021 -69.51839661 107.21568542 -68.54385376 107.10946655 C-67.21624527 106.96899399 -67.21624527 106.96899399 -65.86181641 106.82568359 C-65.08891266 106.74289154 -64.31600891 106.66009949 -63.51968384 106.57479858 C-61.08671715 106.38607475 -58.68539617 106.36898424 -56.24609375 106.3984375 C-62.41625502 98.01003326 -68.65237459 89.75085639 -75.44165039 81.85180664 C-78.61440642 78.15979875 -81.65871367 74.39930707 -84.61328125 70.53125 C-85.79065226 68.99334433 -86.98560915 67.46884585 -88.19140625 65.953125 C-88.82820313 65.15132813 -89.465 64.34953125 -90.12109375 63.5234375 C-90.69601563 62.80414063 -91.2709375 62.08484375 -91.86328125 61.34375 C-94.59900116 57.49519488 -94.62876972 53.99054919 -94.24609375 49.3984375 C-91.2197272 42.10764537 -84.89375301 35.24841723 -78.17578125 31.12890625 C-74.92740645 29.8992583 -71.61149323 29.69182337 -68.24609375 30.3984375 C-63.37637003 33.2698012 -59.09404494 36.87053953 -54.74609375 40.4609375 C-43.09099299 50.00598192 -31.20249813 59.23505821 -19.24609375 68.3984375 C-19.19710937 67.43921387 -19.148125 66.47999023 -19.09765625 65.49169922 C-18.54784419 55.43961043 -17.52105797 45.50682157 -16.24609375 35.5234375 C-15.97716338 33.38558669 -15.70964991 31.24756584 -15.44306946 29.10942078 C-15.27220349 27.74093556 -15.10002637 26.3726133 -14.92643738 25.00447083 C-14.35575731 20.46178949 -13.90190457 15.92099371 -13.5715332 11.35473633 C-12.88524952 7.22931159 -10.44692985 4.48403612 -7.43725586 1.76318359 C-4.76327348 0.09771713 -3.13322656 0.01164047 0 0 Z " fill="#E691A9" transform="translate(191.24609375,65.6015625)"/>
<path d="M0 0 C0.33 0 0.66 0 1 0 C1.11681812 3.54138618 1.187455 7.0822724 1.25 10.625 C1.28351563 11.62402344 1.31703125 12.62304688 1.3515625 13.65234375 C1.43220055 19.74051638 1.2100632 23.44162222 -3 28 C-3.99 28.33 -4.98 28.66 -6 29 C-6 28.34 -6 27.68 -6 27 C-5.34 27 -4.68 27 -4 27 C-3.690625 26.38125 -3.38125 25.7625 -3.0625 25.125 C-2.375 23.75 -1.6875 22.375 -1 21 C-0.84824451 19.40737934 -0.75099675 17.80935144 -0.68359375 16.2109375 C-0.64169922 15.26992187 -0.59980469 14.32890625 -0.55664062 13.359375 C-0.51732422 12.37453125 -0.47800781 11.3896875 -0.4375 10.375 C-0.39431641 9.38242188 -0.35113281 8.38984375 -0.30664062 7.3671875 C-0.20038931 4.91160162 -0.09835036 2.45591297 0 0 Z " fill="#D79EAF" transform="translate(328,186)"/>
<path d="M0 0 C0.8125 1.625 0.8125 1.625 1 4 C-0.46818136 6.24609835 -2.15852858 8.02378677 -4 10 C-5.32 9.67 -6.64 9.34 -8 9 C-6.85459775 7.68712379 -5.70866567 6.37470979 -4.5625 5.0625 C-3.92441406 4.33160156 -3.28632812 3.60070312 -2.62890625 2.84765625 C-1.77458541 1.87860647 -0.91348825 0.91348825 0 0 Z " fill="#E3A1B4" transform="translate(108,101)"/>
<path d="M0 0 C0.33 0.66 0.66 1.32 1 2 C-2.625 7.875 -2.625 7.875 -6 9 C-6 8.34 -6 7.68 -6 7 C-5.34 7 -4.68 7 -4 7 C-3.71125 6.401875 -3.4225 5.80375 -3.125 5.1875 C-2 3 -2 3 0 0 Z " fill="#DEA3B4" transform="translate(328,206)"/>
<path d="M0 0 C0 0.99 0 1.98 0 3 C-0.66 3 -1.32 3 -2 3 C-2.66 4.32 -3.32 5.64 -4 7 C-4.99 7 -5.98 7 -7 7 C-4.78071806 4.09197539 -3.07030857 2.04687238 0 0 Z " fill="#E19EB3" transform="translate(253,111)"/>
<path d="M0 0 C0.99 0.33 1.98 0.66 3 1 C1.38405168 3.04119788 -0.2856382 5.04072937 -2 7 C-2.66 7 -3.32 7 -4 7 C-2.92598892 4.08482708 -2.22189824 2.22189824 0 0 Z " fill="#DF9FB3" transform="translate(183,68)"/>
</svg>
