<?xml version="1.0" standalone="no"?>
<!DOCTYPE svg PUBLIC "-//W3C//DTD SVG 20010904//EN"
 "http://www.w3.org/TR/2001/REC-SVG-20010904/DTD/svg10.dtd">
<svg version="1.0" xmlns="http://www.w3.org/2000/svg"
 width="343.000000pt" height="343.000000pt" viewBox="0 0 343.000000 343.000000"
 preserveAspectRatio="xMidYMid meet">

<g transform="translate(0.000000,343.000000) scale(0.100000,-0.100000)"
fill="#000000" stroke="none">
<path d="M1518 2944 c-48 -26 -57 -60 -88 -342 -17 -147 -31 -270 -33 -273 -1
-4 -100 71 -220 167 -150 120 -228 175 -251 180 -49 9 -92 -16 -159 -91 -61
-68 -77 -109 -59 -155 6 -14 87 -121 181 -239 94 -118 170 -216 168 -217 -1
-1 -119 -15 -262 -29 -143 -15 -276 -33 -295 -39 -20 -6 -44 -25 -57 -45 -20
-29 -23 -47 -23 -123 0 -101 14 -139 59 -163 18 -9 135 -27 298 -45 147 -17
271 -32 275 -33 5 -1 -71 -100 -167 -220 -183 -230 -199 -259 -175 -316 6 -16
42 -59 80 -95 63 -61 71 -66 113 -66 52 0 51 -1 307 208 101 83 185 150 186
149 1 -1 16 -125 33 -276 19 -164 38 -285 47 -302 23 -45 61 -59 164 -59 103
0 141 14 165 59 9 18 27 136 45 302 17 150 32 274 33 276 1 1 86 -66 187 -149
256 -209 255 -208 307 -208 42 0 50 5 113 66 38 36 74 79 80 95 24 57 8 86
-175 316 -97 120 -172 219 -168 220 5 1 129 16 276 33 169 19 280 36 299 46
42 22 58 68 58 166 0 90 -18 135 -61 158 -12 7 -141 25 -288 41 -146 16 -272
30 -279 31 -8 2 60 95 158 218 94 118 176 226 182 240 18 46 2 88 -58 153 -31
34 -72 70 -90 81 -62 33 -85 21 -322 -169 -119 -95 -218 -172 -219 -171 -1 1
-16 125 -33 275 -18 166 -36 284 -45 302 -24 46 -62 59 -167 59 -63 -1 -102
-6 -120 -16z"/>
</g>
</svg>
