<?xml version="1.0" encoding="UTF-8"?>
<svg version="1.1" xmlns="http://www.w3.org/2000/svg" width="347" height="347">
<path d="M0 0 C114.51 0 229.02 0 347 0 C347 104.94 347 209.88 347 318 C232.49 318 117.98 318 0 318 C0 213.06 0 108.12 0 0 Z " fill="#FEFEFE" transform="translate(0,14)"/>
<path d="M0 0 C0.97646484 -0.02384766 1.95292969 -0.04769531 2.95898438 -0.07226562 C7.33128715 -0.06337281 10.99710791 -0.02892204 14.62890625 2.59765625 C19.40492013 8.41626707 19.55285673 16.48142834 20.3515625 23.7578125 C20.45971283 24.70888885 20.56786316 25.65996521 20.67929077 26.63986206 C20.90531144 28.63803574 21.1287106 30.63650752 21.34960938 32.63525391 C21.6873353 35.68601218 22.03443178 38.73559826 22.3828125 41.78515625 C22.60211687 43.73431271 22.82088527 45.68352956 23.0390625 47.6328125 C23.19370468 48.99238571 23.19370468 48.99238571 23.35147095 50.37942505 C23.83579257 54.7993612 24.18226756 59.10732945 24.0625 63.5625 C32.47781286 57.37254587 40.75486493 51.11202801 48.67724609 44.29882812 C52.10172968 41.35771239 55.57226197 38.54903182 59.234375 35.91015625 C60.5490963 34.94097068 61.82694023 33.92102205 63.078125 32.87109375 C66.43408547 30.11075222 68.37159323 28.66789256 72.75 28 C80.53851228 29.32257756 86.02216115 35.60011856 91.5 40.9375 C93.75918753 44.73293506 94.36643294 48.16307072 94.0625 52.5625 C91.94640153 57.58823386 88.79721464 61.13618465 85.16796875 65.15234375 C81.08793841 69.82280519 77.34947659 74.77482033 73.54150391 79.66748047 C72.02737364 81.60750674 70.50525837 83.54099896 68.98046875 85.47265625 C68.4812793 86.1054248 67.98208984 86.73819336 67.46777344 87.39013672 C66.50941772 88.6045003 65.55046009 89.81838917 64.59082031 91.03173828 C62.65079239 93.49463618 60.80283702 95.95199448 59.0625 98.5625 C62.29063157 99.00784182 65.52002861 99.44320828 68.75 99.875 C69.760625 100.01035156 70.77125 100.14570313 71.8125 100.28515625 C77.80106706 101.06721821 83.78848085 101.75065474 89.80078125 102.32421875 C91.09089111 102.44821045 92.38100098 102.57220215 93.71020508 102.69995117 C96.23907171 102.93794895 98.76886906 103.16629487 101.29956055 103.3840332 C114.38405776 104.61974621 114.38405776 104.61974621 119.9375 109.0625 C122.87288282 112.97634375 122.28278804 117.7287925 122.3125 122.375 C122.3434375 123.56706055 122.3434375 123.56706055 122.375 124.78320312 C122.40812335 129.78896997 121.91275474 133.26785941 119.0625 137.5625 C115.64379756 140.84859335 112.54859627 141.14223278 107.9140625 141.62109375 C107.21415192 141.69758652 106.51424133 141.77407928 105.79312134 141.85289001 C104.30632061 142.01516793 102.81897823 142.17254743 101.33117676 142.32537842 C98.3743687 142.63442333 95.42315661 142.98469747 92.47113037 143.33609009 C90.26892944 143.59819279 88.06622556 143.85555363 85.86328125 144.11132812 C85.1357666 144.19584229 84.40825195 144.28035645 83.65869141 144.36743164 C82.16002616 144.54121619 80.66132742 144.71471216 79.16259766 144.88793945 C76.94939071 145.14404252 74.73640337 145.40197952 72.5234375 145.66015625 C71.23228027 145.80976807 69.94112305 145.95937988 68.61083984 146.11352539 C65.40989392 146.51854394 62.24021117 147.00614028 59.0625 147.5625 C64.99297895 155.19950453 71.01372338 162.7454377 77.1875 170.1875 C78.94276374 172.31791819 80.69484244 174.45086688 82.44384766 176.58642578 C83.47465225 177.84484695 84.50791869 179.10125849 85.54443359 180.35498047 C94.56106661 191.33328409 94.56106661 191.33328409 94.0625 198.5625 C92.08083837 203.42055342 89.24143529 206.79089182 85.5 210.375 C85.00564453 210.86419922 84.51128906 211.35339844 84.00195312 211.85742188 C80.53790699 215.24646837 78.63974527 216.71901758 73.8125 216.875 C72.69101562 216.93107422 72.69101562 216.93107422 71.546875 216.98828125 C65.71889179 215.98946023 61.11131031 211.03313118 56.75 207.25 C52.35657571 203.4843857 47.91500703 199.83099064 43.31640625 196.31640625 C39.7221824 193.51951455 36.23541387 190.5926489 32.73828125 187.67578125 C29.93079825 185.45848446 27.06224259 183.50816027 24.0625 181.5625 C23.95292969 182.82578125 23.84335938 184.0890625 23.73046875 185.390625 C22.75830272 196.4353949 21.7017369 207.47120184 20.5625 218.5 C20.38497192 220.28422363 20.38497192 220.28422363 20.20385742 222.10449219 C18.52416803 238.07008217 18.52416803 238.07008217 12.0625 243.5625 C8.4575387 245.36498065 4.28251652 244.8328256 0.3125 244.875 C-0.58210938 244.90400391 -1.47671875 244.93300781 -2.3984375 244.96289062 C-6.58723467 245.00304871 -9.49150795 244.75068443 -13.390625 243.10546875 C-19.1754485 237.32951768 -19.54254628 228.55358014 -20.2890625 220.76171875 C-20.39342621 219.76292191 -20.49778992 218.76412506 -20.60531616 217.73506165 C-20.93394655 214.57427056 -21.24885062 211.41230954 -21.5625 208.25 C-21.88584932 205.0701578 -22.2120781 201.89063943 -22.54110718 198.71138 C-22.74421611 196.7407362 -22.94360599 194.76970464 -23.13882446 192.79826355 C-23.22916962 191.90666031 -23.31951477 191.01505707 -23.41259766 190.09643555 C-23.52893051 188.92470039 -23.52893051 188.92470039 -23.64761353 187.72929382 C-23.93045665 185.6151464 -24.3778019 183.61902218 -24.9375 181.5625 C-25.4001123 181.94470703 -25.86272461 182.32691406 -26.33935547 182.72070312 C-42.42284324 196.00306669 -42.42284324 196.00306669 -49.3203125 201.48046875 C-51.48794229 203.20486678 -53.64784383 204.93794886 -55.8046875 206.67578125 C-56.48644043 207.22411621 -57.16819336 207.77245117 -57.87060547 208.33740234 C-59.22746536 209.42885236 -60.58329459 210.52158514 -61.93798828 211.61572266 C-66.74040643 215.47241845 -69.37393467 217.1097893 -75.5 217.03125 C-80.13551371 216.13980506 -82.81423581 212.90116172 -85.9375 209.5625 C-86.60394531 208.91410156 -87.27039063 208.26570312 -87.95703125 207.59765625 C-91.01301412 204.45453741 -93.28417022 201.83129714 -94.0625 197.4375 C-93.82401013 190.04431391 -89.29527143 185.24655521 -84.75 179.8125 C-83.5740142 178.38558522 -82.39823232 176.95850236 -81.22265625 175.53125 C-80.65562988 174.84675781 -80.08860352 174.16226563 -79.50439453 173.45703125 C-75.39616058 168.48976801 -71.33613162 163.48764543 -67.5234375 158.2890625 C-67.11383789 157.73250977 -66.70423828 157.17595703 -66.28222656 156.60253906 C-65.12176679 155.01840462 -63.97077661 153.42734604 -62.8203125 151.8359375 C-62.19898438 151.08570313 -61.57765625 150.33546875 -60.9375 149.5625 C-60.2775 149.5625 -59.6175 149.5625 -58.9375 149.5625 C-58.9375 148.9025 -58.9375 148.2425 -58.9375 147.5625 C-66.80716321 146.32424637 -74.65834818 145.35203693 -82.58984375 144.6328125 C-83.42649567 144.55520691 -84.26314758 144.47760132 -85.12515259 144.39764404 C-88.58799124 144.07693986 -92.05065337 143.75745934 -95.51586914 143.46337891 C-98.08382138 143.24331645 -100.64911723 143.00230503 -103.21484375 142.7578125 C-104.3743882 142.6669487 -104.3743882 142.6669487 -105.55735779 142.57424927 C-110.9381876 142.03751163 -114.45117526 140.61667788 -118.9375 137.5625 C-122.37255802 132.74640845 -122.39664686 128.19861203 -122.3125 122.5 C-122.32410156 121.71044922 -122.33570313 120.92089844 -122.34765625 120.10742188 C-122.31950354 114.50972397 -121.23347433 111.38773971 -117.66235352 106.9934082 C-115.35274291 105.07739578 -113.64818453 104.93029216 -110.67578125 104.5390625 C-109.5151416 104.3834082 -108.35450195 104.22775391 -107.15869141 104.06738281 C-105.75188361 103.89696181 -104.34479299 103.72886686 -102.9375 103.5625 C-102.11247986 103.4632019 -101.28745972 103.36390381 -100.43743896 103.26159668 C-93.67043025 102.45245268 -86.89827136 101.69208485 -80.125 100.9375 C-78.06442592 100.70597118 -76.0038788 100.47420222 -73.94335938 100.2421875 C-68.94171273 99.67952376 -63.93971281 99.12010701 -58.9375 98.5625 C-59.67500488 97.62583496 -60.41250977 96.68916992 -61.17236328 95.72412109 C-62.15920226 94.46974432 -63.14601739 93.21534879 -64.1328125 91.9609375 C-64.8585144 91.03945923 -64.8585144 91.03945923 -65.59887695 90.09936523 C-69.13625564 85.60129024 -72.62595189 81.07005296 -76.08430481 76.51086426 C-78.43288612 73.42004219 -80.87791955 70.4436866 -83.41796875 67.5078125 C-84.01174316 66.81091309 -84.60551758 66.11401367 -85.21728516 65.39599609 C-86.37415403 64.04393927 -87.54629004 62.70474272 -88.73583984 61.38134766 C-92.21045917 57.29201228 -93.84582902 54.02242316 -94.10571289 48.60595703 C-93.85575756 45.56948952 -92.84620679 43.90980325 -90.9375 41.5625 C-90.24914062 40.71429688 -89.56078125 39.86609375 -88.8515625 38.9921875 C-88.09617188 38.14914063 -87.34078125 37.30609375 -86.5625 36.4375 C-85.81226563 35.58929688 -85.06203125 34.74109375 -84.2890625 33.8671875 C-80.57623679 30.22837161 -78.26304103 28.72405445 -73.02734375 28.0859375 C-68.54621908 28.27680216 -65.78473436 30.29901146 -62.5 33.1875 C-61.9121875 33.67532959 -61.324375 34.16315918 -60.71875 34.66577148 C-58.77706504 36.28139322 -56.8581497 37.92195487 -54.9375 39.5625 C-52.11304214 41.92742569 -49.27623934 44.27724768 -46.4375 46.625 C-45.37619873 47.50720215 -45.37619873 47.50720215 -44.29345703 48.40722656 C-37.74798134 53.80960361 -30.92734981 58.75490124 -23.9375 63.5625 C-23.89262451 62.91104004 -23.84774902 62.25958008 -23.80151367 61.58837891 C-22.90800779 48.83004959 -21.88432032 36.09030613 -20.5 23.375 C-20.33504028 21.75682373 -20.33504028 21.75682373 -20.16674805 20.10595703 C-19.37872759 13.16368899 -18.52307947 7.6621713 -13.93359375 2.16015625 C-9.36966809 -0.27354074 -5.09343204 -0.05692856 0 0 Z " fill="#CED088" transform="translate(172.9375,46.4375)"/>
<path d="M0 0 C0.33 0.66 0.66 1.32 1 2 C-0.27875 2 -1.5575 2 -2.875 2 C-9.32980593 2.64650679 -13.37919765 6.76506841 -18 11 C-18.66 10.67 -19.32 10.34 -20 10 C-13.5152971 3.17891482 -9.68105215 -0.49225689 0 0 Z " fill="#D5D8A5" transform="translate(104,75)"/>
<path d="M0 0 C0.33 0 0.66 0 1 0 C0.85879984 2.58366245 0.71221667 5.16682885 0.5625 7.75 C0.52318359 8.47960937 0.48386719 9.20921875 0.44335938 9.9609375 C0.23852902 13.4272973 -0.0852002 16.65333026 -1 20 C-5.875 18.25 -5.875 18.25 -7 16 C-5.35 16.33 -3.7 16.66 -2 17 C-1.93941406 15.85660156 -1.87882813 14.71320313 -1.81640625 13.53515625 C-1.73201572 12.04425695 -1.64736698 10.55337225 -1.5625 9.0625 C-1.52318359 8.30775391 -1.48386719 7.55300781 -1.44335938 6.77539062 C-1.11328125 1.11328125 -1.11328125 1.11328125 0 0 Z " fill="#FBFBE3" transform="translate(150,90)"/>
<path d="M0 0 C-2.12718758 5.4146593 -6.97228122 8.41819846 -12 11 C-12.66 10.67 -13.32 10.34 -14 10 C-12.04653795 8.32731078 -10.08770186 6.66178419 -8.125 5 C-7.56941406 4.52304688 -7.01382813 4.04609375 -6.44140625 3.5546875 C-2.2265625 0 -2.2265625 0 0 0 Z " fill="#D2D59B" transform="translate(242,76)"/>
<path d="M0 0 C9.41002278 -0.18451025 9.41002278 -0.18451025 14 1 C13.67 1.99 13.34 2.98 13 4 C12.34 4 11.68 4 11 4 C10.566875 4.9590625 10.566875 4.9590625 10.125 5.9375 C9 8 9 8 7 9 C7.33 7.68 7.66 6.36 8 5 C8.66 5 9.32 5 10 5 C10 4.01 10 3.02 10 2 C6.7 1.67 3.4 1.34 0 1 C0 0.67 0 0.34 0 0 Z " fill="#FAF9E4" transform="translate(101,192)"/>
<path d="M0 0 C0.66 0 1.32 0 2 0 C0.50253294 3.88997191 -1.70422078 5.46948052 -5.125 7.75 C-6.49011719 8.67039062 -6.49011719 8.67039062 -7.8828125 9.609375 C-8.93082031 10.29773438 -8.93082031 10.29773438 -10 11 C-10.66 10.67 -11.32 10.34 -12 10 C-10.82630859 9.04287109 -10.82630859 9.04287109 -9.62890625 8.06640625 C-8.61699219 7.24011719 -7.60507813 6.41382812 -6.5625 5.5625 C-5.55316406 4.73878906 -4.54382813 3.91507812 -3.50390625 3.06640625 C-1.70216039 1.58798996 -1.70216039 1.58798996 0 0 Z " fill="#D3D59F" transform="translate(226,87)"/>
<path d="M0 0 C4.875 1.75 4.875 1.75 6 4 C4.35 4 2.7 4 1 4 C0.67 6.97 0.34 9.94 0 13 C-0.33 13 -0.66 13 -1 13 C-1.02708567 11.39592672 -1.04643483 9.7917215 -1.0625 8.1875 C-1.07410156 7.29417969 -1.08570313 6.40085938 -1.09765625 5.48046875 C-1 3 -1 3 0 0 Z " fill="#F9F8E1" transform="translate(197,228)"/>
<path d="M0 0 C0.33 0.66 0.66 1.32 1 2 C-1.09016808 6.54918935 -4.13620455 8.99482576 -8 12 C-6.59023295 8.96147295 -4.91129772 6.4060405 -2.875 3.75 C-2.06675781 2.69039062 -2.06675781 2.69039062 -1.2421875 1.609375 C-0.83226563 1.07828125 -0.42234375 0.5471875 0 0 Z " fill="#D2D69F" transform="translate(93,220)"/>
<path d="M0 0 C2 4 2 4 2 8 C2.99 8.33 3.98 8.66 5 9 C3.02 9.99 3.02 9.99 1 11 C0.67 7.37 0.34 3.74 0 0 Z " fill="#FBFCE6" transform="translate(196,99)"/>
</svg>
