<svg width="400" height="400" xmlns="http://www.w3.org/2000/svg" version="1.1">
 <defs>
  <filter id="svg_2_blur">
   <feGaussianBlur stdDeviation="0" in="SourceGraphic"/>
  </filter>
 </defs>
 <g>
  <title>Layer 1</title>
  <path filter="url(#svg_2_blur)" id="svg_2" fill="#E691A9" d="m191.24609,65.60156c1.50337,-0.0058 1.50337,-0.0058 3.03711,-0.01172c1.56138,0.0174 1.56138,0.0174 3.1543,0.03516c1.03705,-0.0116 2.0741,-0.02321 3.14257,-0.03516c9.58115,0.03692 9.58115,0.03692 13.41993,3.41016c2.69568,3.06515 3.49242,5.34515 4.02734,9.37109c0.23372,1.72839 0.23372,1.72839 0.47217,3.4917c0.16905,1.3788 0.33568,2.7579 0.50049,4.13721c0.09694,0.80061 0.19388,1.60121 0.29376,2.42608c0.9054,7.53401 1.75452,15.07427 2.60443,22.61469c0.32475,2.87338 0.65264,5.74638 0.98071,8.61938c0.1469,1.31872 0.1469,1.31872 0.29677,2.66408c0.09357,0.81863 0.18715,1.63726 0.28355,2.4807c0.12086,1.0737 0.12086,1.0737 0.24416,2.16908c0.30104,2.05621 0.75846,4.01996 1.29662,6.02599c8.62795,-6.76312 17.23572,-13.54831 25.77148,-20.42774c1.97075,-1.58815 3.94337,-3.17396 5.91602,-4.75976c0.61802,-0.49943 1.23605,-0.99886 1.8728,-1.51343c12.2825,-9.86573 12.2825,-9.86573 18.6272,-10.73657c6.19318,0.71069 10.03848,4.35937 14,9c0.59812,0.80437 1.19625,1.60875 1.8125,2.4375c0.88687,0.72187 1.77375,1.44375 2.6875,2.1875c2.82547,3.43639 3.15329,5.79841 3.66015,10.11719c-0.82713,6.41259 -5.52629,11.37881 -9.66015,16.07031c-0.98699,1.1434 -1.97267,2.28793 -2.95703,3.43359c-0.70891,0.82347 -0.70891,0.82347 -1.43213,1.66358c-2.22961,2.6237 -4.32361,5.34496 -6.41553,8.07861c-1.51248,1.96748 -3.03924,3.92044 -4.57813,5.86719c-0.48275,0.61109 -0.9655,1.22219 -1.46289,1.8518c-0.94816,1.19925 -1.89731,2.39771 -2.84765,3.59522c-3.12567,3.96095 -6.08715,8.01065 -8.99414,12.13501c1.18867,0.11275 1.18867,0.11275 2.40136,0.22778c7.35333,0.69949 14.70518,1.41211 22.05602,2.13725c3.55299,0.34882 7.10634,0.68917 10.66225,1.00704c3.81571,0.34137 7.6292,0.70202 11.44287,1.06543c1.16305,0.09772 2.32611,0.19545 3.52441,0.29614c7.18763,0.70949 11.60965,1.55806 16.53662,7.08887c2.5142,3.97733 1.8468,8.47427 1.81397,13.05249c0.01998,0.98097 0.03996,1.96195 0.06054,2.97265c-0.00295,4.38378 -0.26034,7.58313 -1.96289,11.66016c-5.84412,5.74507 -14.85689,6.17644 -22.66797,7.09766c-1.55411,0.19339 -1.55411,0.19339 -3.13961,0.3907c-2.17607,0.26892 -4.35269,0.53339 -6.52982,0.79362c-3.32119,0.39752 -6.64034,0.80954 -9.95947,1.22388c-2.1236,0.26062 -4.24729,0.52041 -6.3711,0.7793c-1.47836,0.18274 -1.47836,0.18274 -2.9866,0.36918c-5.00133,0.59303 -9.84436,0.97254 -14.88058,0.83785c2.32839,3.00386 4.66327,6.00262 7,9c0.81082,1.04027 1.62164,2.08054 2.45703,3.15234c5.56804,7.12394 11.2131,14.17871 16.95166,21.16626c12.1162,14.80805 12.1162,14.80805 11.59131,22.6814c-2.07753,5.19024 -5.11247,8.51384 -9.0625,12.3125c-0.54205,0.53689 -1.08411,1.07379 -1.64258,1.62695c-3.82391,3.74828 -5.72781,5.21998 -11.04492,5.37305c-0.84047,0.03738 -1.68094,0.07476 -2.54688,0.11328c-5.91201,-0.93123 -10.31387,-5.66963 -14.70312,-9.48828c-4.57917,-3.93258 -9.23133,-7.73718 -14,-11.4375c-5.42924,-4.21352 -10.71035,-8.57143 -15.91407,-13.06055c-2.86116,-2.48252 -2.86116,-2.48252 -6.08593,-4.43945c-0.08041,0.88558 -0.16081,1.77117 -0.24366,2.68359c-3.01912,33.11128 -3.01912,33.11128 -4.75634,45.31641c-0.21077,1.68222 -0.21077,1.68222 -0.42578,3.39844c-0.81645,5.86422 -1.57275,10.12933 -5.57422,14.60156c-4.68204,2.90828 -9.59387,2.32984 -14.9375,2.3125c-0.98936,0.01611 -1.97871,0.03222 -2.99805,0.04883c-9.31535,0.00626 -9.31535,0.00626 -13.06445,-3.36133c-2.38081,-3.47429 -3.48165,-6.29919 -4.09375,-10.45313c-0.15598,-1.05381 -0.31196,-2.10761 -0.47266,-3.19336c-0.73603,-5.69266 -1.35647,-11.39275 -1.93359,-17.10351c-0.94651,-9.13172 -1.95139,-18.24408 -3.16797,-27.34375c-0.33203,-2.90625 -0.33203,-2.90625 -0.33203,-6.90625c-5.06599,4.033 -10.11641,8.08334 -15.125,12.1875c-0.91008,0.74508 -1.82016,1.49015 -2.75782,2.25781c-1.66376,1.36265 -3.32634,2.72671 -4.9873,4.09277c-4.68548,3.85149 -9.39212,7.6749 -14.12988,11.46192c-0.55317,0.44392 -1.10634,0.88784 -1.67627,1.34521c-9.95226,7.90965 -9.95226,7.90965 -16.32373,7.65479c-5.12318,-1.37087 -8.09981,-4.68573 -11.6875,-8.375c-0.58073,-0.5775 -1.16145,-1.155 -1.75977,-1.75c-4.67399,-4.73343 -6.70729,-7.80015 -7.01367,-14.67969c1.25418,-5.97329 6.70266,-11.06837 10.52344,-15.69531c9.5447,-11.65469 18.7791,-23.54044 27.9375,-35.5c-0.75612,-0.04464 -1.51224,-0.08927 -2.29126,-0.13526c-10.28649,-0.66665 -20.51213,-1.74065 -30.75196,-2.91162c-1.9415,-0.22011 -3.88358,-0.43522 -5.82617,-0.64551c-2.84562,-0.30804 -5.6893,-0.6304 -8.53296,-0.95605c-0.86052,-0.09075 -1.72105,-0.1815 -2.60765,-0.27499c-6.33649,-0.75128 -11.81608,-1.80705 -16.38844,-6.58048c-2.23168,-4.87159 -2.26187,-9.13396 -2.22656,-14.43359c-0.03223,-0.96358 -0.06446,-1.92715 -0.09766,-2.91992c-0.00641,-4.6914 0.28132,-8.33086 3.07422,-12.20899c2.77906,-2.64277 4.92682,-3.43744 8.6914,-4.03638c0.97571,-0.15663 1.95142,-0.31327 2.9567,-0.47465c4.64643,-0.6544 9.29527,-1.21668 13.96127,-1.71162c0.9936,-0.10816 1.98719,-0.21631 3.0109,-0.32773c2.07868,-0.22536 4.15757,-0.44878 6.23666,-0.67032c3.17977,-0.33931 6.3587,-0.68581 9.5376,-1.0332c2.0299,-0.21918 4.05985,-0.43794 6.08984,-0.65625c0.94588,-0.1031 1.89176,-0.20619 2.86631,-0.31241c1.3276,-0.14048 1.3276,-0.14048 2.68203,-0.28379c0.77291,-0.08279 1.54581,-0.16558 2.34214,-0.25088c2.43296,-0.18873 4.83428,-0.20582 7.27359,-0.17636c-6.17017,-8.38841 -12.40628,-16.64758 -19.19556,-24.54663c-3.17276,-3.69201 -6.21706,-7.4525 -9.17163,-11.32056c-1.17737,-1.53791 -2.37233,-3.0624 -3.57813,-4.57812c-0.63679,-0.8018 -1.27359,-1.6036 -1.92968,-2.42969c-0.57493,-0.7193 -1.14985,-1.4386 -1.74219,-2.17969c-2.73572,-3.84856 -2.76549,-7.3532 -2.38281,-11.94531c3.02636,-7.29079 9.35234,-14.15002 16.07031,-18.26953c3.24837,-1.22965 6.56429,-1.43709 9.92969,-0.73047c4.86972,2.87136 9.15205,6.4721 13.5,10.0625c11.6551,9.54504 23.54359,18.77412 35.5,27.9375c0.04898,-0.95923 0.09796,-1.91845 0.14843,-2.90674c0.54982,-10.05209 1.5766,-19.98488 2.85157,-29.96826c0.26893,-2.13785 0.53644,-4.27587 0.80302,-6.41402c0.17087,-1.36848 0.34304,-2.73681 0.51663,-4.10495c0.57068,-4.54268 1.02454,-9.08348 1.35491,-13.64973c0.68628,-4.12543 3.1246,-6.8707 6.13427,-9.59156c2.67399,-1.66546 4.30403,-1.75154 7.43726,-1.76318z"/>
  <path id="svg_3" fill="#D79EAF" d="m328,186c0.33,0 0.66,0 1,0c0.11682,3.54139 0.18745,7.08227 0.25,10.625c0.03352,0.99902 0.06703,1.99805 0.10156,3.02734c0.08064,6.08818 -0.1415,9.78928 -4.35156,14.34766c-0.99,0.33 -1.98,0.66 -3,1c0,-0.66 0,-1.32 0,-2c0.66,0 1.32,0 2,0c0.30938,-0.61875 0.61875,-1.2375 0.9375,-1.875c0.6875,-1.375 1.375,-2.75 2.0625,-4.125c0.15176,-1.59262 0.249,-3.19065 0.31641,-4.78906c0.04189,-0.94102 0.08379,-1.88203 0.12695,-2.85156c0.03932,-0.98485 0.07863,-1.96969 0.11914,-2.98438c0.04318,-0.99258 0.08637,-1.98516 0.13086,-3.00781c0.10625,-2.45559 0.20829,-4.91128 0.30664,-7.36719z"/>
  <path id="svg_4" fill="#E3A1B4" d="m108,101c0.8125,1.625 0.8125,1.625 1,4c-1.46818,2.2461 -3.15853,4.02379 -5,6c-1.32,-0.33 -2.64,-0.66 -4,-1c1.1454,-1.31288 2.29133,-2.62529 3.4375,-3.9375c0.63809,-0.7309 1.27617,-1.4618 1.93359,-2.21484c0.85432,-0.96905 1.71542,-1.93417 2.62891,-2.84766z"/>
  <path id="svg_5" fill="#DEA3B4" d="m328,206c0.33,0.66 0.66,1.32 1,2c-3.625,5.875 -3.625,5.875 -7,7c0,-0.66 0,-1.32 0,-2c0.66,0 1.32,0 2,0c0.28875,-0.59812 0.5775,-1.19625 0.875,-1.8125c1.125,-2.1875 1.125,-2.1875 3.125,-5.1875z"/>
  <path id="svg_6" fill="#E19EB3" d="m253,111c0,0.99 0,1.98 0,3c-0.66,0 -1.32,0 -2,0c-0.66,1.32 -1.32,2.64 -2,4c-0.99,0 -1.98,0 -3,0c2.21928,-2.90802 3.92969,-4.95313 7,-7z"/>
  <path id="svg_7" fill="#DF9FB3" d="m183,68c0.99,0.33 1.98,0.66 3,1c-1.61595,2.0412 -3.28564,4.04073 -5,6c-0.66,0 -1.32,0 -2,0c1.07401,-2.91517 1.7781,-4.7781 4,-7z"/>
 </g>
</svg>