<?xml version="1.0" standalone="no"?>
<!DOCTYPE svg PUBLIC "-//W3C//DTD SVG 20010904//EN"
 "http://www.w3.org/TR/2001/REC-SVG-20010904/DTD/svg10.dtd">
<svg version="1.0" xmlns="http://www.w3.org/2000/svg"
 width="189.000000pt" height="100.000000pt" viewBox="0 0 189.000000 100.000000"
 preserveAspectRatio="xMidYMid meet">

<g transform="translate(0.000000,100.000000) scale(0.100000,-0.100000)"
fill="#000000" stroke="none">
<path d="M267 743 c11 -37 10 -171 -1 -205 l-8 -28 116 0 116 0 0 35 c0 40
-17 46 -45 15 -10 -11 -31 -20 -47 -20 -26 0 -28 3 -28 41 0 38 2 41 23 36 12
-2 30 -8 40 -12 14 -6 17 -2 17 30 0 33 -2 37 -20 31 -65 -20 -60 -23 -60 33
0 60 9 63 65 25 41 -28 59 -22 53 17 -3 23 -6 24 -116 27 l-113 3 8 -28z"/>
<path d="M1061 759 c-20 -8 -22 -13 -15 -37 11 -35 11 -89 0 -131 l-8 -34 53
6 c56 7 73 21 58 48 -5 10 -9 49 -9 88 0 71 0 71 -27 70 -16 0 -39 -5 -52 -10z"/>
<path d="M536 691 l-29 -6 -1 -88 -1 -87 53 0 53 0 -7 50 c-5 38 -3 56 10 75
15 22 20 24 33 13 12 -10 14 -25 9 -75 l-7 -63 54 0 54 0 -1 68 c-1 61 1 67
20 70 26 4 38 -40 24 -90 -14 -48 -15 -48 45 -48 l56 0 -7 63 c-9 81 -26 114
-63 122 -29 6 -69 -7 -83 -28 -3 -6 -17 -1 -33 12 -32 25 -62 27 -92 6 -19
-13 -22 -13 -27 0 -6 16 -13 17 -60 6z"/>
<path d="M955 691 l-30 -6 0 -88 0 -87 51 0 51 0 -4 73 c-7 124 -6 122 -68
108z"/>
<path d="M1157 694 c-3 -4 6 -25 22 -48 16 -22 38 -60 50 -83 11 -23 29 -46
38 -51 14 -9 15 -13 4 -26 -18 -21 -28 -20 -36 3 -11 37 -59 36 -71 -1 -9 -28
22 -58 61 -58 40 0 60 22 116 125 23 44 51 91 61 104 21 28 16 41 -18 41 -19
0 -24 -5 -24 -27 -1 -16 -9 -43 -19 -61 l-17 -34 -16 25 c-9 13 -18 39 -20 58
l-3 34 -60 3 c-34 2 -64 0 -68 -4z"/>
<path d="M1082 550 c-18 -4 -35 -10 -38 -13 -3 -2 0 -25 7 -51 11 -46 8 -189
-6 -233 -7 -22 -5 -23 47 -23 l55 0 -1 59 c-1 64 11 88 40 77 14 -6 16 -16 11
-71 l-6 -65 55 0 55 0 -6 38 c-14 85 -18 98 -31 120 -11 16 -24 22 -52 22 -20
0 -44 -5 -52 -10 -13 -8 -16 3 -20 72 -3 45 -9 82 -15 84 -5 1 -25 -2 -43 -6z"/>
<path d="M408 478 c-8 -7 -30 -56 -48 -108 -18 -52 -39 -102 -47 -111 -20 -24
-16 -29 23 -29 35 0 36 1 31 28 -8 41 4 54 49 50 38 -3 39 -4 37 -40 l-2 -38
70 0 71 0 -16 25 c-9 13 -32 68 -51 122 -20 53 -41 101 -48 105 -18 12 -51 10
-69 -4z m31 -135 c1 -8 -11 -13 -30 -13 -33 0 -33 3 -7 70 l10 25 13 -35 c8
-19 14 -41 14 -47z"/>
<path d="M893 405 c-62 -27 -74 -106 -22 -149 52 -44 109 -46 149 -6 25 25 26
45 3 35 -37 -16 -65 -10 -86 17 -17 22 -19 33 -11 55 14 41 34 41 34 -1 0 -33
2 -36 29 -36 58 0 49 68 -10 89 -40 14 -47 13 -86 -4z"/>
<path d="M1363 405 c-20 -8 -39 -28 -49 -48 -14 -30 -14 -37 -1 -68 29 -70
126 -88 177 -34 27 29 22 42 -10 25 -12 -7 -33 -9 -48 -5 l-27 7 25 10 c56 23
70 32 75 49 9 27 -11 56 -46 68 -41 14 -57 13 -96 -4z m67 -38 c0 -23 -17 -47
-32 -47 -12 0 -9 45 4 58 18 18 28 14 28 -11z"/>
<path d="M615 402 c-6 -4 -11 -43 -11 -89 l1 -83 52 0 52 0 -6 55 c-4 37 -2
60 7 70 18 22 28 19 45 -15 24 -46 75 -35 75 16 0 46 -61 70 -110 44 -13 -7
-21 -7 -25 0 -7 12 -65 13 -80 2z"/>
<path d="M1535 402 c-6 -4 -10 -44 -10 -89 l0 -83 53 0 53 0 -7 49 c-7 52 7
91 31 91 8 0 17 -11 21 -25 7 -29 39 -42 59 -25 18 15 20 61 3 78 -15 15 -72
16 -99 2 -13 -7 -19 -7 -19 0 0 11 -70 14 -85 2z"/>
</g>
</svg>
